<?xml version="1.0" standalone="no"?>
<!DOCTYPE svg PUBLIC "-//W3C//DTD SVG 20010904//EN"
 "http://www.w3.org/TR/2001/REC-SVG-20010904/DTD/svg10.dtd">
<svg version="1.0" xmlns="http://www.w3.org/2000/svg"
 width="422.000000pt" height="422.000000pt" viewBox="0 0 422.000000 422.000000"
 preserveAspectRatio="xMidYMid meet">
<metadata>
Created by potrace 1.14, written by Peter Selinger 2001-2017
</metadata>
<g transform="translate(0.000000,422.000000) scale(0.100000,-0.100000)"
fill="#000000" stroke="none">
<path d="M205 4199 c-59 -29 -132 -106 -166 -174 l-29 -60 0 -1823 c0 -1003 2
-1828 5 -1832 3 -5 0 -10 -7 -12 -19 -7 5 -74 50 -138 41 -59 184 -165 210
-155 7 3 521 6 1140 7 620 1 1033 5 917 8 l-210 5 157 6 157 6 49 44 c65 58
151 109 377 222 33 16 62 34 63 38 2 5 7 9 12 9 11 0 158 89 199 121 142 109
244 199 236 207 -6 6 54 62 67 62 5 0 6 5 3 10 -3 6 -1 10 4 10 6 0 11 5 11
11 0 14 41 67 138 179 17 20 32 43 32 50 0 7 14 29 30 50 17 21 30 42 30 48 0
6 3 12 7 14 5 2 16 19 26 38 9 19 28 53 42 75 13 22 29 51 36 65 113 242 147
309 167 333 8 9 12 17 7 17 -4 0 3 15 17 33 22 29 38 60 67 127 31 70 78 133
92 124 5 -3 14 7 21 22 l13 27 11 -44 c10 -38 13 -8 15 206 l3 250 6 -265 c3
-146 7 208 8 786 l2 1050 -36 60 c-47 79 -105 136 -174 173 l-58 31 -1853 0
c-1832 -1 -1854 -1 -1894 -21z m2650 -1251 c4 -3 7 -62 8 -130 l2 -123 -615 1
-615 1 -3 118 c-1 65 0 125 2 132 4 10 128 12 610 10 332 -1 607 -5 611 -9z
m-1245 -828 l0 -830 -120 0 -120 0 0 33 c0 17 0 333 -1 702 0 369 0 677 0 686
1 19 79 124 143 192 32 33 52 47 71 47 l27 0 0 -830z m400 349 l0 -129 226 0
c211 0 226 -1 222 -17 -3 -10 -32 -60 -64 -110 l-59 -93 -162 0 -163 0 0 -415
0 -415 -120 0 -120 0 0 655 0 654 113 3 c61 2 115 2 120 0 4 -2 7 -61 7 -133z
m1188 -676 c-16 -2 -40 -2 -55 0 -16 2 -3 4 27 4 30 0 43 -2 28 -4z m23 -119
c-25 -69 -24 -65 -6 -58 10 4 13 0 10 -15 -5 -27 -14 -41 -25 -41 -5 0 -7 8
-4 18 4 14 3 14 -11 -3 -26 -32 -98 -147 -116 -185 -14 -31 -78 -101 -68 -75
11 28 65 125 89 160 32 47 120 212 120 225 0 5 5 21 12 37 21 52 20 -1 -1 -63z
m384 -14 c-9 -41 -17 -33 -9 9 4 17 9 30 11 27 3 -2 2 -19 -2 -36z m-41 -127
c-14 -38 -37 -92 -50 -121 -13 -29 -24 -56 -24 -60 0 -4 -10 -18 -21 -32 l-20
-25 15 32 c17 35 13 58 -12 68 -15 5 -13 9 8 25 20 15 21 18 6 17 -10 -1 -20
5 -21 14 -2 12 3 15 18 11 13 -3 18 -1 13 6 -4 6 7 26 24 43 16 18 30 37 31
43 0 6 4 3 8 -7 6 -15 9 -12 21 17 7 20 17 36 21 36 5 0 -3 -30 -17 -67z
m-699 -329 c-33 -28 -102 -76 -125 -87 -8 -5 -2 2 14 15 96 76 184 133 111 72z
m-2680 -1123 l30 -23 -30 17 c-39 23 -81 62 -108 100 -11 17 1 7 29 -21 27
-28 63 -61 79 -73z m298 -58 c-7 -2 -21 -2 -30 0 -10 3 -4 5 12 5 17 0 24 -2
18 -5z m54 1 c-3 -3 -12 -4 -19 -1 -8 3 -5 6 6 6 11 1 17 -2 13 -5z m40 0 c-3
-3 -12 -4 -19 -1 -8 3 -5 6 6 6 11 1 17 -2 13 -5z m241 -1 c-43 -2 -113 -2
-155 0 -43 1 -8 3 77 3 85 0 120 -2 78 -3z m669 0 c-20 -2 -52 -2 -70 0 -17 2
0 4 38 4 39 0 53 -2 32 -4z"/>
<path d="M3515 1510 c-3 -5 1 -10 9 -10 9 0 16 5 16 10 0 6 -4 10 -9 10 -6 0
-13 -4 -16 -10z"/>
<path d="M4212 1700 c0 -19 2 -27 5 -17 2 9 2 25 0 35 -3 9 -5 1 -5 -18z"/>
<path d="M4203 279 c-24 -82 -113 -183 -198 -225 -28 -13 -77 -28 -110 -32
l-60 -8 43 -7 c44 -7 99 6 162 38 68 35 188 207 177 254 -2 9 -8 1 -14 -20z"/>
</g>
</svg>
